<svg xmlns="http://www.w3.org/2000/svg" xmlns:xlink="http://www.w3.org/1999/xlink" width="300" zoomAndPan="magnify" viewBox="0 0 224.87999 37.5" height="50" preserveAspectRatio="xMidYMid meet" version="1.0"><defs><g/><clipPath id="e743a64b07"><path d="M 1.421875 0 L 223.339844 0 L 223.339844 37.007812 L 1.421875 37.007812 Z M 1.421875 0 " clip-rule="nonzero"/></clipPath></defs><g clip-path="url(#e743a64b07)"><path fill="#ffffff" d="M 1.421875 0 L 223.460938 0 L 223.460938 37.007812 L 1.421875 37.007812 Z M 1.421875 0 " fill-opacity="1" fill-rule="nonzero"/><path fill="#000000" d="M 1.421875 0 L 223.460938 0 L 223.460938 37.007812 L 1.421875 37.007812 Z M 1.421875 0 " fill-opacity="1" fill-rule="nonzero"/></g><g fill="#fddb2f" fill-opacity="1"><g transform="translate(82.407102, 22.290459)"><g><path d="M 2.625 -6.546875 L 0.046875 -6.546875 L 0.046875 -8.078125 L 7.078125 -8.078125 L 7.078125 -6.546875 L 4.5 -6.546875 L 4.5 0 L 2.625 0 Z M 2.625 -6.546875 "/></g></g></g><g fill="#fddb2f" fill-opacity="1"><g transform="translate(89.394706, 22.290459)"><g><path d="M 0.828125 -6.203125 L 2.625 -6.203125 L 2.625 0 L 0.828125 0 Z M 1.734375 -7.0625 C 1.398438 -7.0625 1.128906 -7.15625 0.921875 -7.34375 C 0.710938 -7.539062 0.609375 -7.785156 0.609375 -8.078125 C 0.609375 -8.359375 0.710938 -8.59375 0.921875 -8.78125 C 1.128906 -8.976562 1.398438 -9.078125 1.734375 -9.078125 C 2.054688 -9.078125 2.320312 -8.984375 2.53125 -8.796875 C 2.738281 -8.609375 2.84375 -8.378906 2.84375 -8.109375 C 2.84375 -7.804688 2.738281 -7.554688 2.53125 -7.359375 C 2.320312 -7.160156 2.054688 -7.0625 1.734375 -7.0625 Z M 1.734375 -7.0625 "/></g></g></g><g fill="#fddb2f" fill-opacity="1"><g transform="translate(92.865456, 22.290459)"><g><path d="M 4.59375 -6.296875 C 5.363281 -6.296875 5.984375 -6.0625 6.453125 -5.59375 C 6.929688 -5.132812 7.171875 -4.453125 7.171875 -3.546875 L 7.171875 0 L 5.375 0 L 5.375 -3.28125 C 5.375 -3.769531 5.265625 -4.132812 5.046875 -4.375 C 4.835938 -4.613281 4.523438 -4.734375 4.109375 -4.734375 C 3.660156 -4.734375 3.300781 -4.59375 3.03125 -4.3125 C 2.757812 -4.03125 2.625 -3.613281 2.625 -3.0625 L 2.625 0 L 0.828125 0 L 0.828125 -6.203125 L 2.546875 -6.203125 L 2.546875 -5.484375 C 2.785156 -5.742188 3.082031 -5.941406 3.4375 -6.078125 C 3.789062 -6.222656 4.175781 -6.296875 4.59375 -6.296875 Z M 4.59375 -6.296875 "/></g></g></g><g fill="#fddb2f" fill-opacity="1"><g transform="translate(100.717869, 22.290459)"><g><path d="M 6.984375 -6.203125 L 4.1875 0.375 C 3.90625 1.09375 3.550781 1.597656 3.125 1.890625 C 2.707031 2.179688 2.203125 2.328125 1.609375 2.328125 C 1.285156 2.328125 0.96875 2.273438 0.65625 2.171875 C 0.34375 2.078125 0.0859375 1.941406 -0.109375 1.765625 L 0.546875 0.484375 C 0.679688 0.609375 0.835938 0.703125 1.015625 0.765625 C 1.203125 0.835938 1.382812 0.875 1.5625 0.875 C 1.800781 0.875 2 0.8125 2.15625 0.6875 C 2.3125 0.570312 2.453125 0.378906 2.578125 0.109375 L 2.59375 0.046875 L -0.09375 -6.203125 L 1.765625 -6.203125 L 3.5 -2 L 5.265625 -6.203125 Z M 6.984375 -6.203125 "/></g></g></g><g fill="#fddb2f" fill-opacity="1"><g transform="translate(107.567116, 22.290459)"><g><path d="M 3.609375 0.140625 C 2.972656 0.140625 2.351562 0.0546875 1.75 -0.109375 C 1.15625 -0.285156 0.679688 -0.515625 0.328125 -0.796875 L 0.953125 -2.203125 C 1.296875 -1.953125 1.707031 -1.75 2.1875 -1.59375 C 2.664062 -1.4375 3.144531 -1.359375 3.625 -1.359375 C 4.15625 -1.359375 4.546875 -1.4375 4.796875 -1.59375 C 5.046875 -1.75 5.171875 -1.957031 5.171875 -2.21875 C 5.171875 -2.414062 5.097656 -2.578125 4.953125 -2.703125 C 4.804688 -2.828125 4.613281 -2.925781 4.375 -3 C 4.144531 -3.082031 3.828125 -3.171875 3.421875 -3.265625 C 2.804688 -3.410156 2.300781 -3.554688 1.90625 -3.703125 C 1.519531 -3.847656 1.1875 -4.082031 0.90625 -4.40625 C 0.625 -4.726562 0.484375 -5.160156 0.484375 -5.703125 C 0.484375 -6.171875 0.609375 -6.59375 0.859375 -6.96875 C 1.117188 -7.351562 1.503906 -7.65625 2.015625 -7.875 C 2.523438 -8.09375 3.148438 -8.203125 3.890625 -8.203125 C 4.398438 -8.203125 4.898438 -8.140625 5.390625 -8.015625 C 5.890625 -7.898438 6.320312 -7.726562 6.6875 -7.5 L 6.109375 -6.078125 C 5.367188 -6.503906 4.625 -6.71875 3.875 -6.71875 C 3.351562 -6.71875 2.96875 -6.628906 2.71875 -6.453125 C 2.46875 -6.285156 2.34375 -6.0625 2.34375 -5.78125 C 2.34375 -5.507812 2.484375 -5.304688 2.765625 -5.171875 C 3.054688 -5.035156 3.5 -4.90625 4.09375 -4.78125 C 4.707031 -4.632812 5.207031 -4.484375 5.59375 -4.328125 C 5.988281 -4.179688 6.328125 -3.953125 6.609375 -3.640625 C 6.890625 -3.328125 7.03125 -2.898438 7.03125 -2.359375 C 7.03125 -1.898438 6.898438 -1.476562 6.640625 -1.09375 C 6.390625 -0.71875 6.003906 -0.414062 5.484375 -0.1875 C 4.972656 0.03125 4.347656 0.140625 3.609375 0.140625 Z M 3.609375 0.140625 "/></g></g></g><g fill="#fddb2f" fill-opacity="1"><g transform="translate(114.923721, 22.290459)"><g><path d="M 4.828125 -0.296875 C 4.648438 -0.171875 4.429688 -0.0703125 4.171875 0 C 3.921875 0.0625 3.648438 0.09375 3.359375 0.09375 C 2.628906 0.09375 2.0625 -0.09375 1.65625 -0.46875 C 1.25 -0.84375 1.046875 -1.398438 1.046875 -2.140625 L 1.046875 -4.6875 L 0.09375 -4.6875 L 0.09375 -6.0625 L 1.046875 -6.0625 L 1.046875 -7.578125 L 2.84375 -7.578125 L 2.84375 -6.0625 L 4.390625 -6.0625 L 4.390625 -4.6875 L 2.84375 -4.6875 L 2.84375 -2.15625 C 2.84375 -1.894531 2.910156 -1.691406 3.046875 -1.546875 C 3.179688 -1.410156 3.375 -1.34375 3.625 -1.34375 C 3.90625 -1.34375 4.144531 -1.414062 4.34375 -1.5625 Z M 4.828125 -0.296875 "/></g></g></g><g fill="#fddb2f" fill-opacity="1"><g transform="translate(119.939587, 22.290459)"><g><path d="M 3.328125 -6.296875 C 4.296875 -6.296875 5.035156 -6.066406 5.546875 -5.609375 C 6.054688 -5.148438 6.3125 -4.460938 6.3125 -3.546875 L 6.3125 0 L 4.640625 0 L 4.640625 -0.765625 C 4.296875 -0.191406 3.664062 0.09375 2.75 0.09375 C 2.269531 0.09375 1.851562 0.015625 1.5 -0.140625 C 1.15625 -0.304688 0.890625 -0.53125 0.703125 -0.8125 C 0.515625 -1.101562 0.421875 -1.425781 0.421875 -1.78125 C 0.421875 -2.363281 0.640625 -2.816406 1.078125 -3.140625 C 1.515625 -3.472656 2.1875 -3.640625 3.09375 -3.640625 L 4.515625 -3.640625 C 4.515625 -4.035156 4.394531 -4.335938 4.15625 -4.546875 C 3.925781 -4.753906 3.570312 -4.859375 3.09375 -4.859375 C 2.757812 -4.859375 2.429688 -4.804688 2.109375 -4.703125 C 1.796875 -4.609375 1.523438 -4.472656 1.296875 -4.296875 L 0.65625 -5.546875 C 1 -5.785156 1.40625 -5.96875 1.875 -6.09375 C 2.34375 -6.226562 2.828125 -6.296875 3.328125 -6.296875 Z M 3.1875 -1.125 C 3.5 -1.125 3.773438 -1.191406 4.015625 -1.328125 C 4.253906 -1.472656 4.421875 -1.679688 4.515625 -1.953125 L 4.515625 -2.59375 L 3.28125 -2.59375 C 2.539062 -2.59375 2.171875 -2.351562 2.171875 -1.875 C 2.171875 -1.632812 2.257812 -1.445312 2.4375 -1.3125 C 2.625 -1.1875 2.875 -1.125 3.1875 -1.125 Z M 3.1875 -1.125 "/></g></g></g><g fill="#fddb2f" fill-opacity="1"><g transform="translate(127.123243, 22.290459)"><g><path d="M 7.234375 -6.203125 L 7.234375 -1.03125 C 7.234375 0.101562 6.9375 0.945312 6.34375 1.5 C 5.75 2.050781 4.882812 2.328125 3.75 2.328125 C 3.144531 2.328125 2.570312 2.253906 2.03125 2.109375 C 1.5 1.960938 1.054688 1.75 0.703125 1.46875 L 1.421875 0.1875 C 1.679688 0.394531 2.007812 0.5625 2.40625 0.6875 C 2.8125 0.820312 3.210938 0.890625 3.609375 0.890625 C 4.234375 0.890625 4.691406 0.75 4.984375 0.46875 C 5.285156 0.1875 5.4375 -0.238281 5.4375 -0.8125 L 5.4375 -1.078125 C 4.96875 -0.554688 4.3125 -0.296875 3.46875 -0.296875 C 2.90625 -0.296875 2.382812 -0.421875 1.90625 -0.671875 C 1.4375 -0.921875 1.0625 -1.269531 0.78125 -1.71875 C 0.507812 -2.175781 0.375 -2.703125 0.375 -3.296875 C 0.375 -3.890625 0.507812 -4.410156 0.78125 -4.859375 C 1.0625 -5.316406 1.4375 -5.671875 1.90625 -5.921875 C 2.382812 -6.171875 2.90625 -6.296875 3.46875 -6.296875 C 4.363281 -6.296875 5.050781 -6 5.53125 -5.40625 L 5.53125 -6.203125 Z M 3.828125 -1.78125 C 4.304688 -1.78125 4.695312 -1.921875 5 -2.203125 C 5.300781 -2.484375 5.453125 -2.847656 5.453125 -3.296875 C 5.453125 -3.753906 5.300781 -4.117188 5 -4.390625 C 4.695312 -4.671875 4.304688 -4.8125 3.828125 -4.8125 C 3.347656 -4.8125 2.953125 -4.671875 2.640625 -4.390625 C 2.335938 -4.117188 2.1875 -3.753906 2.1875 -3.296875 C 2.1875 -2.847656 2.335938 -2.484375 2.640625 -2.203125 C 2.953125 -1.921875 3.347656 -1.78125 3.828125 -1.78125 Z M 3.828125 -1.78125 "/></g></g></g><g fill="#fddb2f" fill-opacity="1"><g transform="translate(135.194754, 22.290459)"><g><path d="M 6.90625 -3.078125 C 6.90625 -3.054688 6.894531 -2.894531 6.875 -2.59375 L 2.171875 -2.59375 C 2.265625 -2.207031 2.46875 -1.898438 2.78125 -1.671875 C 3.09375 -1.453125 3.484375 -1.34375 3.953125 -1.34375 C 4.273438 -1.34375 4.5625 -1.390625 4.8125 -1.484375 C 5.0625 -1.585938 5.296875 -1.742188 5.515625 -1.953125 L 6.46875 -0.90625 C 5.882812 -0.238281 5.03125 0.09375 3.90625 0.09375 C 3.207031 0.09375 2.585938 -0.0390625 2.046875 -0.3125 C 1.515625 -0.582031 1.101562 -0.957031 0.8125 -1.4375 C 0.519531 -1.925781 0.375 -2.484375 0.375 -3.109375 C 0.375 -3.710938 0.515625 -4.257812 0.796875 -4.75 C 1.085938 -5.238281 1.484375 -5.617188 1.984375 -5.890625 C 2.492188 -6.160156 3.054688 -6.296875 3.671875 -6.296875 C 4.285156 -6.296875 4.835938 -6.164062 5.328125 -5.90625 C 5.816406 -5.644531 6.203125 -5.269531 6.484375 -4.78125 C 6.765625 -4.289062 6.90625 -3.722656 6.90625 -3.078125 Z M 3.6875 -4.9375 C 3.28125 -4.9375 2.9375 -4.820312 2.65625 -4.59375 C 2.382812 -4.363281 2.21875 -4.046875 2.15625 -3.640625 L 5.21875 -3.640625 C 5.15625 -4.035156 4.984375 -4.347656 4.703125 -4.578125 C 4.429688 -4.816406 4.09375 -4.9375 3.6875 -4.9375 Z M 3.6875 -4.9375 "/></g></g></g><g fill="#fddb2f" fill-opacity="1"><g transform="translate(142.471946, 22.290459)"><g/></g></g></svg>